<svg xmlns="http://www.w3.org/2000/svg" viewBox="0 0 32 32">
  <rect width="32" height="32" fill="#fff"/>
  <!-- QR finder patterns (top-left, top-right, bottom-left) -->
  <!-- Top-left finder -->
  <rect x="1" y="1" width="9" height="9" fill="#111"/>
  <rect x="2" y="2" width="7" height="7" fill="#fff"/>
  <rect x="3" y="3" width="5" height="5" fill="#111"/>
  <!-- Top-right finder -->
  <rect x="22" y="1" width="9" height="9" fill="#111"/>
  <rect x="23" y="2" width="7" height="7" fill="#fff"/>
  <rect x="24" y="3" width="5" height="5" fill="#111"/>
  <!-- Bottom-left finder -->
  <rect x="1" y="22" width="9" height="9" fill="#111"/>
  <rect x="2" y="23" width="7" height="7" fill="#fff"/>
  <rect x="3" y="24" width="5" height="5" fill="#111"/>
  <!-- Data dots (scattered to look like QR data) -->
  <rect x="12" y="1" width="2" height="2" fill="#111"/>
  <rect x="16" y="1" width="2" height="2" fill="#111"/>
  <rect x="12" y="5" width="2" height="2" fill="#111"/>
  <rect x="14" y="3" width="2" height="2" fill="#111"/>
  <rect x="18" y="5" width="2" height="2" fill="#111"/>
  <rect x="1" y="12" width="2" height="2" fill="#111"/>
  <rect x="5" y="12" width="2" height="2" fill="#111"/>
  <rect x="3" y="14" width="2" height="2" fill="#111"/>
  <rect x="7" y="14" width="2" height="2" fill="#111"/>
  <rect x="1" y="16" width="2" height="2" fill="#111"/>
  <rect x="12" y="12" width="2" height="2" fill="#111"/>
  <rect x="16" y="12" width="2" height="2" fill="#111"/>
  <rect x="14" y="14" width="2" height="2" fill="#111"/>
  <rect x="18" y="14" width="2" height="2" fill="#111"/>
  <rect x="12" y="16" width="2" height="2" fill="#111"/>
  <rect x="22" y="12" width="2" height="2" fill="#111"/>
  <rect x="26" y="12" width="2" height="2" fill="#111"/>
  <rect x="24" y="14" width="2" height="2" fill="#111"/>
  <rect x="28" y="14" width="2" height="2" fill="#111"/>
  <rect x="22" y="16" width="2" height="2" fill="#111"/>
  <rect x="26" y="16" width="2" height="2" fill="#111"/>
  <rect x="12" y="22" width="2" height="2" fill="#111"/>
  <rect x="16" y="22" width="2" height="2" fill="#111"/>
  <rect x="14" y="24" width="2" height="2" fill="#111"/>
  <rect x="18" y="24" width="2" height="2" fill="#111"/>
  <rect x="12" y="26" width="2" height="2" fill="#111"/>
  <rect x="22" y="22" width="2" height="2" fill="#111"/>
  <rect x="26" y="22" width="2" height="2" fill="#111"/>
  <rect x="24" y="26" width="2" height="2" fill="#111"/>
  <rect x="28" y="24" width="2" height="2" fill="#111"/>
  <rect x="16" y="28" width="2" height="2" fill="#111"/>
  <rect x="28" y="28" width="2" height="2" fill="#111"/>
</svg>
